<svg width="669" height="360" viewBox="0 0 669 360" fill="none" xmlns="http://www.w3.org/2000/svg">
<path d="M384.534 305.263L366.786 302.875L365.452 306.546L383.2 308.934L384.534 305.263Z" fill="#FFCF48"/>
<path d="M578.843 182.338L559.404 178.391L556.699 183.323L576.137 187.271L578.843 182.338Z" fill="#FFCF48"/>
<path d="M375.649 234.391L358.221 240.95L362.716 245.372L380.144 238.813L375.649 234.391Z" fill="#AF65D1"/>
<path d="M227.784 29.6869L212.258 21.5483L206.681 25.4881L222.207 33.6266L227.784 29.6869Z" fill="#BDD654"/>
<path d="M561.248 93.535L545.722 85.3965L540.145 89.3362L555.671 97.4748L561.248 93.535Z" fill="#BDD654"/>
<path d="M560.709 215.249L540.348 216.657L540.996 220.126L561.356 218.719L560.709 215.249Z" fill="#FF5A99"/>
<path d="M203.604 157.658L184.924 162.783L187.282 165.967L205.962 160.842L203.604 157.658Z" fill="#FFCF48"/>
<path d="M595.992 233.296L587.107 230.099L582.034 235.319L590.919 238.516L595.992 233.296Z" fill="#BDD654"/>
<path d="M489.482 38.3428L480.597 35.1455L475.524 40.3652L484.409 43.5624L489.482 38.3428Z" fill="#BDD654"/>
<path d="M308.226 37.6143L299.341 34.417L294.268 39.6367L303.153 42.8339L308.226 37.6143Z" fill="#BDD654"/>
<path d="M296.818 319.51L287.933 316.312L282.859 321.532L291.744 324.73L296.818 319.51Z" fill="#65A9E5"/>
<path d="M185.37 277.815L176.485 274.617L171.411 279.836L180.296 283.034L185.37 277.815Z" fill="#65A9E5"/>
<path d="M159.853 101.902L153.151 99.4897L149.323 103.427L156.025 105.839L159.853 101.902Z" fill="#FF5A99"/>
<path d="M93.9469 203.09L82.5509 198.989L76.0443 205.684L87.4404 209.785L93.9469 203.09Z" fill="#BDD654"/>
<path d="M147.368 215.522L135.972 211.421L129.465 218.116L140.861 222.217L147.368 215.522Z" fill="#BDD654"/>
<path d="M456.26 141.915L449.649 146.655L460.23 151.346L461.365 160.42L469.862 156.614L463.221 150.684L456.26 141.915Z" fill="#FF7697"/>
<path d="M387.324 67.2002L380.712 71.9403L391.293 76.6309L392.428 85.705L400.925 81.8995L394.285 75.9694L387.324 67.2002Z" fill="#FF7697"/>
<path d="M524.84 132.726L528.945 138.42L540.511 134.688L554.412 138.042L552.513 131.728L540.844 132.761L524.84 132.726Z" fill="#FF7697"/>
<path d="M339.376 0L336.889 5.49351L348.532 4.77855L355.133 10.3398L359.756 4.78442L350.583 3.26847L339.376 0Z" fill="#FFE878"/>
<path d="M296.496 79.272L294.01 84.7655L305.653 84.0505L312.254 89.6118L316.876 84.0564L307.704 82.5404L296.496 79.272Z" fill="#FFE878"/>
<path d="M46.6315 307.985L43.9292 312.149L52.8318 312.861L56.9833 318.087L61.3082 314.109L54.6077 311.868L46.6315 307.985Z" fill="#BA6AB4"/>
<path d="M225.099 100.764L222.396 104.928L231.298 105.64L235.45 110.866L239.776 106.888L233.075 104.647L225.099 100.764Z" fill="#BA6AB4"/>
<path d="M385.707 209.782L389.38 212.751L378.598 213.181L367.698 220.91L365.394 214.335L376.673 212.223L385.707 209.782Z" fill="#65A9E5"/>
<path d="M204.024 66.2495L208.441 67.9193L200.34 70.1789L196.034 78.1757L190.755 73.4382L198.344 69.7722L204.024 66.2495Z" fill="#65A9E5"/>
<path d="M165.851 197.498L162.572 193.809L174.339 194.45L187.94 186.968L188.895 194.534L176.198 195.717L165.851 197.498Z" fill="#65A9E5"/>
<path d="M413.514 271.519L403.719 186.344L276.72 186.578L268.944 248.58L119.217 248.855L103.438 331.37L565.546 330.519L549.537 271.268L413.514 271.519Z" fill="#F9F1CF"/>
<path d="M404.766 195.449L403.806 187.103L331.903 330.987L352.307 330.912L404.766 195.449Z" fill="#FFF9E1"/>
<g opacity="0.52">
<path d="M392.792 330.837L565.546 330.519L549.537 271.268L415.665 271.515L392.792 330.837Z" fill="#EFE7C2"/>
<path d="M250.963 248.613L119.216 248.855L103.438 331.37L198.779 331.195L250.963 248.613Z" fill="#EFE7C2"/>
<path d="M290.178 186.553L276.72 186.578L273.391 213.119L290.178 186.553Z" fill="#EFE7C2"/>
</g>
<path d="M125.021 332.461L107.488 310.229L114.193 330.105L125.021 332.461Z" fill="#BDD654"/>
<path d="M127.833 332.078L114.073 303.825L118.614 327.588L127.833 332.078Z" fill="#BDD654"/>
<path d="M132.188 332.037L122.46 310.866L124.772 328.97L132.188 332.037Z" fill="#BDD654"/>
<path d="M133.495 332.322L134.642 309.656L127.645 327.818L133.495 332.322Z" fill="#BDD654"/>
<path d="M119.445 333.929L97.3478 314.361L108.032 332.847L119.445 333.929Z" fill="#BDD654"/>
<path d="M152.11 333.617L154.025 306.812L145.204 328.555L152.11 333.617Z" fill="#BDD654"/>
<path d="M154.611 333.927L163.799 301.976L150.497 327.107L154.611 333.927Z" fill="#BDD654"/>
<path d="M158.091 334.965L165.438 311.167L154.395 330.03L158.091 334.965Z" fill="#BDD654"/>
<path d="M158.925 335.577L173.932 311.726L157.492 329.577L158.925 335.577Z" fill="#BDD654"/>
<path d="M146.647 333.719L143.05 308.476L138.371 329.798L146.647 333.719Z" fill="#BDD654"/>
<path d="M140.959 335.484L138.436 318.058L130.741 331.563L140.959 335.484Z" fill="#BDD654"/>
<path d="M563.381 332.074L545.848 309.841L552.553 329.718L563.381 332.074Z" fill="#BDD654"/>
<path d="M566.193 331.691L552.434 303.437L556.974 327.201L566.193 331.691Z" fill="#BDD654"/>
<path d="M570.548 331.65L560.82 310.478L563.132 328.583L570.548 331.65Z" fill="#BDD654"/>
<path d="M573.284 332.275L568.128 312.61L566.005 327.43L573.284 332.275Z" fill="#BDD654"/>
<path d="M577.435 332.487L575.438 317.284L570.368 328.993L577.435 332.487Z" fill="#BDD654"/>
<path d="M557.806 333.541L535.709 313.974L546.392 332.46L557.806 333.541Z" fill="#BDD654"/>
<path d="M589.907 335.808L591.823 309.003L583.001 330.745L589.907 335.808Z" fill="#BDD654"/>
<path d="M592.971 333.54L602.159 301.588L588.858 326.72L592.971 333.54Z" fill="#BDD654"/>
<path d="M596.451 334.578L603.799 310.779L592.755 329.642L596.451 334.578Z" fill="#BDD654"/>
<path d="M597.285 335.189L612.293 311.338L595.852 329.19L597.285 335.189Z" fill="#BDD654"/>
<path d="M585.007 333.332L581.411 308.088L576.731 329.411L585.007 333.332Z" fill="#BDD654"/>
<path d="M669 328.168L0 329.401C0.101009 370.97 669.101 369.823 669 328.168Z" fill="#269A00"/>
<path d="M331.671 205.084C331.269 205.084 331.038 204.984 331.038 204.834C330.923 204.684 330.866 204.484 330.866 204.233C330.809 202.882 330.866 202.031 330.981 201.68C331.153 201.33 331.613 201.03 332.475 200.73C336.21 200.58 340.232 199.579 344.599 197.676C345.174 197.526 345.633 197.476 346.036 197.476C346.898 197.476 347.357 197.777 347.357 198.127C347.357 200.679 347.242 202.181 347.185 204.133L346.84 208.737V212.241L347.013 215.294C347.07 216.095 347.128 217.546 347.128 219.698C347.243 221.45 347.07 226.755 347.587 228.858C352.127 229.009 354.425 229.259 354.425 229.559L354.598 231.711C354.655 232.412 354.195 232.763 353.161 232.712C351.265 232.662 349.886 232.612 348.966 232.512C348.047 232.412 346.955 232.362 345.748 232.312C343.909 232.413 341.439 232.512 338.336 232.613C337.646 232.613 336.899 232.562 336.095 232.562C334.773 232.562 333.222 232.613 331.555 232.712C331.153 232.712 330.866 232.212 330.693 231.261C330.693 231.111 330.636 230.96 330.693 230.811C330.693 230.11 330.923 229.659 331.383 229.559C333.912 229.259 336.037 228.909 337.761 228.558C339.657 228.608 340.577 228.208 340.577 227.457C340.634 226.656 340.634 225.956 340.634 225.305C340.634 224.654 340.634 223.703 340.577 222.452V217.948C340.634 216.146 340.577 214.595 340.461 213.243C340.461 212.392 340.404 211.591 340.404 210.74C340.404 209.889 340.461 209.039 340.461 208.187L340.634 203.333L333.852 204.734C332.82 204.934 332.13 205.084 331.671 205.084Z" fill="#FC4747"/>
<path d="M209.883 273.124C209.883 277.078 207.642 279.831 205.976 282.183C204.367 284.535 196.15 293.745 195.863 293.995C195.461 294.345 195.001 294.746 195.403 294.746C195.69 294.746 196.725 294.796 197.989 294.796C198.621 294.796 199.311 294.796 200 294.746C202.012 294.746 207.93 294.696 210.113 294.546C212.297 294.395 211.895 295.297 211.895 296.098C211.837 296.948 211.895 298.55 211.895 299.901C211.895 301.253 211.263 301.303 209.654 301.303C208.562 301.303 205.458 301.403 203.103 301.403C202.241 301.403 201.437 301.403 200.919 301.353C199.598 301.353 195 301.303 191.84 301.303C190.231 301.303 189.025 301.303 188.737 301.353C188.507 301.403 188.22 301.403 187.933 301.403C187.358 301.403 186.841 301.254 186.841 300.853C186.841 300.303 187.301 299.902 188.22 298.951C189.14 298 195.173 291.193 197.586 288.69C199.999 286.187 203.85 282.684 206.148 277.729C206.608 276.728 206.78 275.777 206.78 274.926C206.78 271.423 203.562 269.12 200.862 269.12C197.414 269.12 195.461 269.871 193.91 270.421C192.473 270.972 190.29 273.624 189.945 273.775C189.83 273.825 189.715 273.875 189.657 273.875C189.485 273.875 189.37 273.725 189.14 273.575C188.91 273.375 188.451 273.175 188.163 272.975C187.934 272.774 187.818 272.674 188.106 272.324C188.393 271.973 189.6 270.673 190.921 269.521C192.186 268.42 197.759 265.417 200.862 265.417C206.378 265.416 209.883 269.219 209.883 273.124Z" fill="#FC4747"/>
<path d="M480.803 280.333C483.906 280.333 488.044 280.433 488.848 280.433C489.595 280.433 489.537 281.234 489.537 282.686L489.48 288.842C489.48 289.843 488.733 290.144 487.411 291.095C485.86 292.045 482.125 294.548 481.378 295.049C480.976 295.399 480.229 295.85 479.539 296.4C479.137 296.651 478.734 296.95 478.217 297.252C477.757 297.502 477.527 297.702 477.527 297.902C477.527 298.052 477.585 298.102 477.7 298.102C477.987 298.102 478.792 298.052 479.998 298.102C481.147 298.102 485.055 298.302 486.261 298.452C487.583 298.602 492.525 299.854 492.525 305.96C492.525 307.461 492.294 308.763 491.835 309.864C490.973 312.016 490.455 313.768 487.755 315.37C486.261 316.121 485.055 316.621 484.193 316.872C482.526 317.422 479.826 317.522 476.895 317.522C471.495 317.522 468.047 310.915 467.587 309.864C467.357 309.514 467.299 309.264 467.299 309.063C467.299 308.763 467.587 308.713 467.76 308.613C467.817 308.463 468.449 308.262 468.966 308.062C469.081 308.012 469.138 308.012 469.253 308.012C469.54 308.012 469.771 308.262 469.885 308.712C470.115 309.163 470.575 310.815 471.954 312.666C473.334 314.518 476.034 315.87 479.769 315.87C483.331 315.87 486.32 314.118 487.182 313.767C488.273 313.217 490.802 310.314 490.802 305.959C490.629 303.607 489.595 302.056 488.216 301.054C486.836 300.053 484.136 299.803 482.125 299.803C480.229 299.803 477.93 300.104 475.919 300.354C474.023 300.604 473.506 300.554 473.334 300.554C473.276 300.554 473.218 300.554 473.218 300.554C472.989 300.554 472.874 300.454 472.817 300.253C472.759 300.003 472.759 299.653 472.759 299.303C472.759 298.953 473.104 298.852 473.965 298.202C474.655 297.601 483.044 291.695 484.193 290.894C484.366 290.745 484.424 290.644 484.424 290.544C484.424 290.144 483.044 290.194 482.068 290.194C481.034 290.194 470.69 290.394 469.599 290.394C468.506 290.394 468.737 289.593 468.737 288.642C468.737 287.992 468.794 285.889 468.794 284.037C468.794 283.036 468.737 282.135 468.737 281.534C468.737 280.733 469.311 280.533 470.116 280.533C470.92 280.533 471.897 280.733 472.759 280.733C475.229 280.733 477.757 280.333 480.803 280.333Z" fill="#FC4747"/>
<path d="M625.036 328.335C398.486 327.254 271.111 326.913 44.3312 329.234C196.614 341.053 472.992 340.639 625.036 328.335Z" fill="#BDD654"/>
</svg>
